<svg xmlns="http://www.w3.org/2000/svg" fill="none" viewBox="0 0 36 36">
  <path fill="#14b8a6" d="M18 2.25A15.75 15.75 0 1 0 33.75 18 15.77 15.77 0 0 0 18 2.25Z"/>
  <path fill="#fff" d="M11.438 10.313h5.624c2.335 0 4.22 1.886 4.22 4.22 0 2.334-1.885 4.22-4.22 4.22h-3.374v4.22c0 .622-.502 1.125-1.125 1.125-.622 0-1.125-.503-1.125-1.125V11.438c0-.622.503-1.125 1.125-1.125Zm1.125 6.188h4.5c1.089 0 1.97-.88 1.97-1.969 0-1.088-.881-1.969-1.97-1.969h-4.5v3.938Zm13.124-6.188h-4.5c-.622 0-1.125.503-1.125 1.125 0 .623.503 1.125 1.125 1.125h4.5c.622 0 1.126.503 1.126 1.125v9c0 .623-.504 1.124-1.126 1.124h-4.5c-.622 0-1.125.503-1.125 1.126 0 .622.503 1.125 1.125 1.125h4.5c1.87 0 3.376-1.506 3.376-3.376v-9c0-1.87-1.506-3.374-3.376-3.374Z"/>
</svg>